<svg xmlns="http://www.w3.org/2000/svg" style="display: none;">
  
    <symbol id="icon-glyph-icons-mesosphere-icon-circle" viewBox="0 0 512 512">
      <path d="m512 256c0 141-115 256-256 256-141 0-256-115-256-256 0-141 115-256 256-256 141 0 256 115 256 256z"/>
    </symbol>
  
    <symbol id="icon-glyph-icons-mesosphere-icon-ring-check" viewBox="0 0 512 512">
      <path d="m453 187c8 21 11 45 11 69 0 115-93 208-208 208-115 0-208-93-208-208 0-115 93-208 208-208 50 0 94 18 130 46l11-11c-39-32-87-51-141-51-123 0-224 101-224 224 0 123 101 224 224 224 123 0 224-101 224-224 0-29-5-56-16-80z m-229 160l-102-101 12-12 90 91 250-251 12 12z"/>
    </symbol>
  
    <symbol id="icon-glyph-icons-mesosphere-icon-triangle" viewBox="0 0 512 512">
      <path d="m0 448l256-416 256 416z"/>
    </symbol>
  
    <symbol id="icon-glyph-icons-mesosphere-icon-check" viewBox="0 0 512 512">
      <path d="m160 422l-139-139 22-22 117 117 314-309 22 22z"/>
    </symbol>
  
    <symbol id="icon-glyph-icons-mesosphere-icon-servers-physical-and-vm" viewBox="0 0 512 512">
      <path d="m480 368c10 0 16 6 16 16l0 96c0 10-6 16-16 16l-448 0c-10 0-16-6-16-16l0-96c0-10 6-16 16-16l448 0m0-16l-448 0c-18 0-32 14-32 32l0 96c0 18 14 32 32 32l448 0c18 0 32-14 32-32l0-96c0-18-14-32-32-32z m0-16l-448 0c-18 0-32-14-32-32l0-96c0-18 14-32 32-32l448 0c18 0 32 14 32 32l0 96c0 18-14 32-32 32z m0-144c10 0 16 6 16 16l0 96c0 10-6 16-16 16l-448 0c-10 0-16-6-16-16l0-96c0-10 6-16 16-16l448 0m0-16l-448 0c-18 0-32 14-32 32l0 96c0 18 14 32 32 32l448 0c18 0 32-14 32-32l0-96c0-18-14-32-32-32z m0-160c10 0 16 6 16 16l0 96c0 10-6 16-16 16l-448 0c-10 0-16-6-16-16l0-96c0-10 6-16 16-16l448 0m0-16l-448 0c-18 0-32 14-32 32l0 96c0 18 14 32 32 32l448 0c18 0 32-14 32-32l0-96c0-18-14-32-32-32z"/>
    </symbol>
  
</svg>
